#!OML:ASF X:\für Bonn\!DataBase\2005_08_12_Daniel\c3d\Daniel.ASF
:FULLY-SPECIFIED
:DEGREES
218
root 0.723078 17.8896 0.931295 -565.2 -100.646 552.511
lowerback 13.4127 0.860696 1.02218
upperback -8.31932e-005 0.870414 -4.52302
thorax -7.46075 0.258808 -5.58949
lowerneck 11.7876 -5.73652 0.913861
upperneck 5.99473 -8.03146 7.52081
head 0.213549 -4.22221 2.48882
rclavicle 1.19271e-014 -2.54444e-014
rhumerus 68.1779 -8.04983 -62.2526
rradius 27.6863
rwrist 36.8436
rhand -26.4055 732.038
rfingers 7.12502
rthumb 0.154098 -17.9421
lclavicle 1.19271e-014 -2.54444e-014
lhumerus -129.76 208.805 -120.198
lradius 87.75
lwrist 8.54327
lhand -16.5024 -10.0653
lfingers 7.12502
lthumb 9.71547 19.6907
rfemur 0.58523 3.31496 12.3106
rtibia 41.0568
rfoot 1.35114 -15.5942
rtoes -11.3112
lfemur -186.882 194.598 -203.313
ltibia 46.7471
lfoot 362.892 1.66471
ltoes 0.730044
219
root 0.750419 17.8916 0.926272 -564.132 -100.697 551.605
lowerback 13.4945 0.829463 1.04564
upperback 0.014287 0.843 -4.41195
thorax -7.49519 0.247428 -5.47952
lowerneck 12.0222 -5.71038 0.871486
upperneck 5.85183 -7.98556 7.63864
head 0.133152 -4.21034 2.54738
rclavicle -2.08724e-015 2.38542e-014
rhumerus 66.3335 -7.54314 -60.3808
rradius 29.372
rwrist 35.2614
rhand -27.8465 732.142
rfingers 7.12502
rthumb -1.23768 -17.8345
lclavicle -2.08724e-015 2.38542e-014
lhumerus -131.15 209.387 -119.858
lradius 88.1126
lwrist 8.50908
lhand -16.8811 -10.1728
lfingers 7.12502
lthumb 9.35009 19.5998
rfemur 0.381178 2.77191 12.1667
rtibia 40.873
rfoot 1.70217 -14.9164
rtoes -10.9364
lfemur -186.967 194.601 -203.075
ltibia 46.6275
lfoot 362.233 1.41577
ltoes 0.835603
220
root 0.779131 17.8835 0.921097 -563.049 -100.751 550.722
lowerback 13.5448 0.795088 1.04114
upperback 0.00919694 0.809762 -4.2758
thorax -7.534 0.234817 -5.32459
lowerneck 12.1544 -5.67805 0.769741
upperneck 5.77425 -7.94623 7.73846
head 0.0921744 -4.19838 2.60473
rclavicle -2.68359e-015 -1.43125e-014
rhumerus 64.4964 -6.9635 -58.6815
rradius 31.0875
rwrist 33.8426
rhand -29.17 732.394
rfingers 7.12502
rthumb -2.5159 -17.5709
lclavicle -2.68359e-015 -1.43125e-014
lhumerus -132.609 209.953 -119.445
lradius 88.4321
lwrist 8.64309
lhand -17.273 -10.2213
lfingers 7.12502
lthumb 8.97194 19.5679
rfemur 0.13653 2.13088 12.0119
rtibia 40.7833
rfoot 1.79743 -14.1001
rtoes -10.7838
lfemur -187.084 194.622 -202.834
ltibia 46.5234
lfoot 361.445 1.13285
ltoes 1.04551
221
root 0.808853 17.8598 0.915202 -562.15 -100.823 549.988
lowerback 13.6074 0.772145 1.02786
upperback 0.0347002 0.787388 -4.16895
thorax -7.54536 0.227624 -5.19798
lowerneck 12.1929 -5.65503 0.694928
upperneck 5.69393 -7.91786 7.84462
head 0.0654439 -4.18896 2.65599
rclavicle -1.92821e-014 2.46493e-014
rhumerus 62.6381 -6.42075 -57.2573
rradius 32.8542
rwrist 32.6303
rhand -30.3111 732.701
rfingers 7.12502
rthumb -3.61789 -17.2478
lclavicle -1.92821e-014 2.46493e-014
lhumerus -134.045 210.546 -118.996
lradius 88.6667
lwrist 8.80927
lhand -17.5995 -10.2294
lfingers 7.12502
lthumb 8.65689 19.5731
rfemur -0.0794028 1.36659 11.8233
rtibia 40.808
rfoot 1.76296 -13.0779
rtoes -10.7472
lfemur -187.177 194.641 -202.633
ltibia 46.4528
lfoot 360.489 0.808227
ltoes 1.30506
222
root 0.838985 17.8238 0.909474 -561.382 -100.892 549.303
lowerback 13.7572 0.749307 0.995361
upperback 0.0741628 0.761511 -4.05316
thorax -7.59149 0.218793 -5.05251
lowerneck 12.1646 -5.61978 0.593388
upperneck 5.6594 -7.88316 7.96619
head 0.0658282 -4.17448 2.71301
rclavicle 9.93923e-015 -8.74653e-015
rhumerus 60.7592 -5.84037 -56.1468
rradius 34.6428
rwrist 31.726
rhand -31.3615 733.085
rfingers 7.12502
rthumb -4.63222 -16.8445
lclavicle 9.93923e-015 -8.74653e-015
lhumerus -135.584 211.111 -118.43
lradius 88.8821
lwrist 9.05908
lhand -17.8275 -10.2683
lfingers 7.12502
lthumb 8.43685 19.5432
rfemur -0.228244 0.615412 11.652
rtibia 40.9472
rfoot 1.45711 -11.9942
rtoes -11.1669
lfemur -187.172 194.639 -202.464
ltibia 46.4114
lfoot 359.379 0.475766
ltoes 1.4888
223
root 0.868664 17.7825 0.903648 -560.81 -100.965 548.783
lowerback 13.9322 0.727245 0.917141
upperback 0.136764 0.728837 -3.93627
thorax -7.62788 0.208536 -4.87825
lowerneck 11.9566 -5.58661 0.513895
upperneck 5.70502 -7.85696 8.01318
head 0.11859 -4.15588 2.7319
rclavicle -1.85864e-014 -8.74653e-015
rhumerus 58.9347 -5.24598 -55.3464
rradius 36.381
rwrist 31.056
rhand -32.2582 733.488
rfingers 7.12502
rthumb -5.49805 -16.4205
lclavicle -1.85864e-014 -8.74653e-015
lhumerus -137.158 211.637 -117.767
lradius 89.0066
lwrist 9.39242
lhand -17.9779 -10.2875
lfingers 7.12502
lthumb 8.29168 19.5298
rfemur -0.350156 -0.0978188 11.4862
rtibia 41.1632
rfoot 0.904889 -10.9366
rtoes -11.8766
lfemur -187.135 194.637 -202.346
ltibia 46.3965
lfoot 358.161 0.120734
ltoes 1.65998
224
root 0.897852 17.7366 0.897395 -560.366 -101.07 548.388
lowerback 14.0996 0.705085 0.805599
upperback 0.202578 0.68957 -3.827
thorax -7.65711 0.196132 -4.69135
lowerneck 11.7101 -5.55776 0.409152
upperneck 5.80119 -7.8458 8.0725
head 0.19621 -4.14349 2.75717
rclavicle -3.07122e-014 5.64548e-014
rhumerus 57.0859 -4.6475 -54.8232
rradius 38.0698
rwrist 30.6918
rhand -33.0377 733.846
rfingers 7.12502
rthumb -6.25061 -16.0416
lclavicle -3.07122e-014 5.64548e-014
lhumerus -138.786 212.143 -117.017
lradius 89.1049
lwrist 9.80255
lhand -18.0102 -10.231
lfingers 7.12502
lthumb 8.26048 19.5875
rfemur -0.444234 -0.724213 11.349
rtibia 41.423
rfoot 0.0881812 -10.046
rtoes -12.6293
lfemur -187.101 194.65 -202.267
ltibia 46.3966
lfoot 356.849 -0.263392
ltoes 1.65279
225
root 0.926005 17.685 0.890671 -560.111 -101.149 548.181
lowerback 14.2494 0.691275 0.641498
upperback 0.285626 0.65235 -3.71965
thorax -7.65788 0.18702 -4.47569
lowerneck 11.4273 -5.51068 0.309906
upperneck 5.87217 -7.80716 8.13822
head 0.270475 -4.11661 2.78225
rclavicle -6.25178e-014 2.54444e-014
rhumerus 55.2758 -4.02241 -54.4987
rradius 39.6852
rwrist 30.4719
rhand -33.7161 734.095
rfingers 7.12502
rthumb -6.90552 -15.7727
lclavicle -6.25178e-014 2.54444e-014
lhumerus -140.42 212.586 -116.209
lradius 89.1164
lwrist 10.2772
lhand -17.9677 -10.1573
lfingers 7.12502
lthumb 8.30149 19.6596
rfemur -0.531817 -1.22769 11.2461
rtibia 41.7114
rfoot -0.964477 -9.30326
rtoes -13.5878
lfemur -187.053 194.618 -202.217
ltibia 46.4041
lfoot 355.504 -0.693685
ltoes 1.44991
226
root 0.953745 17.6289 0.884419 -559.874 -101.245 547.97
lowerback 14.4164 0.679651 0.476256
upperback 0.379241 0.616055 -3.62248
thorax -7.65638 0.177919 -4.27083
lowerneck 11.1084 -5.48229 0.283608
upperneck 5.95325 -7.78574 8.17165
head 0.350898 -4.09548 2.78265
rclavicle 4.95968e-014 -3.73715e-014
rhumerus 53.4518 -3.39716 -54.3311
rradius 41.237
rwrist 30.3658
rhand -34.2887 734.313
rfingers 7.12502
rthumb -7.45826 -15.5351
lclavicle 4.95968e-014 -3.73715e-014
lhumerus -142.01 213.023 -115.395
lradius 89
lwrist 10.84
lhand -17.9407 -9.91509
lfingers 7.12502
lthumb 8.32755 19.9008
rfemur -0.565212 -1.67728 11.1754
rtibia 42.0159
rfoot -2.28111 -8.67747
rtoes -14.5712
lfemur -186.987 194.603 -202.185
ltibia 46.4183
lfoot 354.144 -1.18074
ltoes 1.11059
